<svg width="29" height="13" viewBox="0 0 29 13" fill="none" xmlns="http://www.w3.org/2000/svg">
<path d="M14.5001 0.500016C20.3311 0.493016 24.2756 2.73302 27.0196 5.15502C28.1746 6.17352 28.7031 7.70652 28.4283 9.14502L28.1536 10.5975C27.8946 11.9555 26.6223 12.869 25.1821 12.729L22.3173 12.4525C21.0678 12.3318 20.1421 11.42 19.7501 10.125C19.2181 8.36627 18.8751 7.06252 18.8751 7.06252C17.4933 6.47033 16.0033 6.17234 14.5001 6.18752C12.7256 6.18752 11.4586 6.56377 10.1251 7.06252C10.1251 7.06252 9.76806 8.36802 9.25006 10.125C8.90356 11.2993 8.36806 12.3248 7.14481 12.4473L4.29581 12.7343C3.60204 12.8009 2.90647 12.6268 2.32587 12.2412C1.74528 11.8556 1.31501 11.2821 1.10731 10.6168L0.673309 9.16777C0.45821 8.47418 0.438663 7.73469 0.616821 7.0307C0.794978 6.32672 1.16393 5.68554 1.68306 5.17777C4.17681 2.75227 8.67781 0.505266 14.5001 0.500016ZM20.5813 6.67227L20.6268 6.83852L20.7983 7.46502C20.9488 8.00052 21.1623 8.75302 21.4248 9.61752C21.6646 10.4068 22.1073 10.6745 22.4853 10.7113L25.3501 10.9878C25.9556 11.0455 26.3563 10.678 26.4351 10.2703L26.7098 8.81777C26.7828 8.38583 26.743 7.94237 26.5943 7.53032C26.4456 7.11827 26.193 6.75159 25.8611 6.46577C23.3673 4.26602 19.8201 2.24302 14.5036 2.25002C9.12056 2.25702 5.06056 4.33602 2.90281 6.43252C2.61287 6.71736 2.40767 7.07708 2.31004 7.47163C2.2124 7.86618 2.22617 8.28008 2.34981 8.66727L2.78381 10.118C2.94306 10.6535 3.51881 11.0525 4.12081 10.993L6.96981 10.706C7.03806 10.699 7.06081 10.685 7.06431 10.6833C7.09854 10.6596 7.12819 10.63 7.15181 10.5958C7.27431 10.4418 7.41956 10.1495 7.57181 9.63152C7.8463 8.69838 8.11405 7.76327 8.37506 6.82627L8.42231 6.65652C8.60081 6.01427 9.22381 5.56802 9.51256 5.42277C10.9458 4.88727 12.4351 4.43752 14.5001 4.43752C16.5388 4.43752 18.0578 4.83652 19.5401 5.44377C19.8043 5.55227 20.3836 5.94077 20.5673 6.61802L20.5708 6.63027L20.5813 6.67227Z" fill="white"/>
</svg>
