<svg width="18" height="28" viewBox="0 0 18 28" fill="none" xmlns="http://www.w3.org/2000/svg">
<path d="M1.125 11.375C1.35706 11.375 1.57962 11.4672 1.74372 11.6313C1.90781 11.7954 2 12.0179 2 12.25V14C2 15.8565 2.7375 17.637 4.05025 18.9497C5.36301 20.2625 7.14348 21 9 21C10.8565 21 12.637 20.2625 13.9497 18.9497C15.2625 17.637 16 15.8565 16 14V12.25C16 12.0179 16.0922 11.7954 16.2563 11.6313C16.4204 11.4672 16.6429 11.375 16.875 11.375C17.1071 11.375 17.3296 11.4672 17.4937 11.6313C17.6578 11.7954 17.75 12.0179 17.75 12.25V14C17.75 16.1692 16.9443 18.261 15.4892 19.8697C14.0341 21.4785 12.0333 22.4893 9.875 22.7063V26.25H15.125C15.3571 26.25 15.5796 26.3422 15.7437 26.5063C15.9078 26.6704 16 26.8929 16 27.125C16 27.3571 15.9078 27.5796 15.7437 27.7437C15.5796 27.9078 15.3571 28 15.125 28H2.875C2.64294 28 2.42038 27.9078 2.25628 27.7437C2.09219 27.5796 2 27.3571 2 27.125C2 26.8929 2.09219 26.6704 2.25628 26.5063C2.42038 26.3422 2.64294 26.25 2.875 26.25H8.125V22.7063C5.9667 22.4893 3.96591 21.4785 2.51079 19.8697C1.05567 18.261 0.249973 16.1692 0.25 14V12.25C0.25 12.0179 0.342187 11.7954 0.506282 11.6313C0.670376 11.4672 0.892936 11.375 1.125 11.375Z" fill="white"/>
<path d="M12.5 14C12.5 14.9283 12.1313 15.8185 11.4749 16.4749C10.8185 17.1313 9.92826 17.5 9 17.5C8.07174 17.5 7.1815 17.1313 6.52513 16.4749C5.86875 15.8185 5.5 14.9283 5.5 14V5.25C5.5 4.32174 5.86875 3.4315 6.52513 2.77513C7.1815 2.11875 8.07174 1.75 9 1.75C9.92826 1.75 10.8185 2.11875 11.4749 2.77513C12.1313 3.4315 12.5 4.32174 12.5 5.25V14ZM9 0C7.60761 0 6.27226 0.553123 5.28769 1.53769C4.30312 2.52226 3.75 3.85761 3.75 5.25V14C3.75 15.3924 4.30312 16.7277 5.28769 17.7123C6.27226 18.6969 7.60761 19.25 9 19.25C10.3924 19.25 11.7277 18.6969 12.7123 17.7123C13.6969 16.7277 14.25 15.3924 14.25 14V5.25C14.25 3.85761 13.6969 2.52226 12.7123 1.53769C11.7277 0.553123 10.3924 0 9 0V0Z" fill="white"/>
</svg>
