<svg width="24" height="28" viewBox="0 0 24 28" fill="none" xmlns="http://www.w3.org/2000/svg">
<path d="M20.75 14C20.75 14.987 20.5855 15.9372 20.2845 16.8227L18.86 15.3982C18.9532 14.938 19.0001 14.4696 19 14V12.25C19 12.0179 19.0922 11.7954 19.2563 11.6313C19.4204 11.4672 19.6429 11.375 19.875 11.375C20.1071 11.375 20.3296 11.4672 20.4937 11.6313C20.6578 11.7954 20.75 12.0179 20.75 12.25V14ZM12 21C13.4315 21 14.7615 20.5712 15.871 19.8327L17.1275 21.091C15.8783 21.9969 14.4106 22.5544 12.875 22.7062V26.25H18.125C18.3571 26.25 18.5796 26.3422 18.7437 26.5063C18.9078 26.6704 19 26.8929 19 27.125C19 27.3571 18.9078 27.5796 18.7437 27.7437C18.5796 27.9078 18.3571 28 18.125 28H5.875C5.64294 28 5.42038 27.9078 5.25628 27.7437C5.09219 27.5796 5 27.3571 5 27.125C5 26.8929 5.09219 26.6704 5.25628 26.5063C5.42038 26.3422 5.64294 26.25 5.875 26.25H11.125V22.7062C8.9667 22.4893 6.96591 21.4785 5.51079 19.8697C4.05567 18.261 3.24997 16.1692 3.25 14V12.25C3.25 12.0179 3.34219 11.7954 3.50628 11.6313C3.67038 11.4672 3.89294 11.375 4.125 11.375C4.35706 11.375 4.57962 11.4672 4.74372 11.6313C4.90781 11.7954 5 12.0179 5 12.25V14C5 15.8565 5.7375 17.637 7.05025 18.9497C8.36301 20.2625 10.1435 21 12 21ZM17.25 5.24999V13.7882L15.5 12.0382V5.24999C15.504 4.33694 15.1511 3.45847 14.5166 2.80198C13.882 2.14548 13.016 1.76296 12.1033 1.73602C11.1907 1.70908 10.3036 2.03984 9.6314 2.65776C8.9592 3.27567 8.55508 4.1318 8.50525 5.04349L7.0265 3.56474C7.42715 2.38741 8.2326 1.39047 9.29946 0.751382C10.3663 0.112299 11.6254 -0.127448 12.8524 0.0748237C14.0795 0.277095 15.195 0.908258 16.0003 1.85595C16.8056 2.80364 17.2484 4.00636 17.25 5.24999Z" fill="#111111"/>
<path d="M14.6005 18.5622L13.2915 17.2532C12.7606 17.464 12.1861 17.5417 11.6183 17.4794C11.0505 17.4171 10.5066 17.2168 10.034 16.8959C9.56137 16.575 9.1745 16.1433 8.90711 15.6386C8.63973 15.1338 8.49995 14.5712 8.49999 14V12.4635L6.74999 10.7135V14C6.74972 14.9193 6.99085 15.8226 7.44925 16.6194C7.90765 17.4163 8.56726 18.0788 9.3621 18.5407C10.1569 19.0026 11.0591 19.2477 11.9784 19.2515C12.8977 19.2553 13.8019 19.0176 14.6005 18.5622ZM0.880493 2.36949L21.8805 23.3695L23.1195 22.1305L2.11949 1.13049L0.880493 2.36949Z" fill="#111111"/>
</svg>
