<svg width="28" height="26" viewBox="0 0 28 26" fill="none" xmlns="http://www.w3.org/2000/svg">
<path fill-rule="evenodd" clip-rule="evenodd" d="M19.1818 20.6387C19.6809 20.1069 20.0004 19.4317 20.0952 18.7085L25.5378 21.127C25.8041 21.2457 26.096 21.2959 26.3867 21.2731C26.6775 21.2504 26.9579 21.1553 27.2026 20.9965C27.4472 20.8378 27.6483 20.6204 27.7876 20.3641C27.9269 20.1079 27.9999 19.8209 28 19.5292V6.47074C27.9997 6.17933 27.9267 5.89259 27.7876 5.63655C27.6484 5.38051 27.4475 5.16327 27.2031 5.00456C26.9587 4.84586 26.6785 4.75069 26.388 4.72772C26.0975 4.70474 25.8058 4.75468 25.5395 4.87299L20.0952 7.29149C19.984 6.4499 19.5708 5.6774 18.9323 5.11787C18.2939 4.55833 17.4739 4.24989 16.625 4.24999H7.476L8.7255 5.99999H16.625C17.0891 5.99999 17.5342 6.18437 17.8624 6.51256C18.1906 6.84074 18.375 7.28586 18.375 7.74999V18.25C18.3753 18.5695 18.2882 18.883 18.123 19.1565L19.1818 20.6387ZM2.499 6.31499C2.26773 6.47609 2.07883 6.69072 1.94841 6.94058C1.818 7.19045 1.74992 7.46814 1.75 7.74999V18.25C1.75 18.7141 1.93437 19.1592 2.26256 19.4874C2.59075 19.8156 3.03587 20 3.5 20H12.2745L13.524 21.75H3.5C2.57174 21.75 1.6815 21.3812 1.02513 20.7249C0.368749 20.0685 0 19.1783 0 18.25V7.74999C0 6.56874 0.5845 5.52399 1.48225 4.89049L2.49725 6.31499H2.499ZM26.25 19.5275L20.125 16.8062V9.19374L26.25 6.47074V19.5292V19.5275ZM18.5378 25.7575L1.03775 1.25749L2.46225 0.242493L19.9622 24.7425L18.5378 25.7575Z" fill="black"/>
</svg>
