<svg width="28" height="18" viewBox="0 0 28 18" fill="none" xmlns="http://www.w3.org/2000/svg">
<path fill-rule="evenodd" clip-rule="evenodd" d="M0 3.75C0 2.82174 0.368749 1.9315 1.02513 1.27513C1.6815 0.618749 2.57174 0.25 3.5 0.25H16.625C17.4739 0.2499 18.2939 0.558337 18.9323 1.11787C19.5708 1.67741 19.984 2.4499 20.0952 3.2915L25.5378 0.873C25.8041 0.7543 26.096 0.704061 26.3867 0.72685C26.6775 0.749638 26.9579 0.844731 27.2026 1.00348C27.4472 1.16224 27.6483 1.37962 27.7876 1.63587C27.9269 1.89211 27.9999 2.1791 28 2.47075V15.5293C27.9997 15.8207 27.9267 16.1074 27.7876 16.3634C27.6484 16.6195 27.4475 16.8367 27.2031 16.9954C26.9587 17.1541 26.6785 17.2493 26.388 17.2723C26.0975 17.2952 25.8058 17.2453 25.5395 17.127L20.0952 14.7085C19.984 15.5501 19.5708 16.3226 18.9323 16.8821C18.2939 17.4417 17.4739 17.7501 16.625 17.75H3.5C2.57174 17.75 1.6815 17.3813 1.02513 16.7249C0.368749 16.0685 0 15.1783 0 14.25V3.75ZM20.125 12.8063L26.25 15.5293V2.47075L20.125 5.19375V12.8063ZM3.5 2C3.03587 2 2.59075 2.18437 2.26256 2.51256C1.93437 2.84075 1.75 3.28587 1.75 3.75V14.25C1.75 14.7141 1.93437 15.1592 2.26256 15.4874C2.59075 15.8156 3.03587 16 3.5 16H16.625C17.0891 16 17.5342 15.8156 17.8624 15.4874C18.1906 15.1592 18.375 14.7141 18.375 14.25V3.75C18.375 3.28587 18.1906 2.84075 17.8624 2.51256C17.5342 2.18437 17.0891 2 16.625 2H3.5Z" fill="white"/>
</svg>
